<svg width="175" height="68" viewBox="0 0 175 68" fill="none" xmlns="http://www.w3.org/2000/svg">
<g clip-path="url(#clip0_0_14674)">
<path d="M30.2264 7.22363H63.3284V60.0079H7.15869V8.09058V8.09191L14.4434 18.3891L30.2264 7.22363Z" fill="#D8D1C1"/>
<path d="M34.2679 10.2229C34.2679 15.6529 32.4982 20.6834 29.4857 24.8083C28.0705 26.7454 26.3817 28.4832 24.4726 29.9662C21.1137 32.579 17.0737 34.4098 12.6486 35.1719C12.2809 35.2356 11.9105 35.2914 11.5387 35.3392L8.03376 33.0994L7.86383 32.9919V10.3012L14.2763 19.3664L30.4443 7.92874H34.1617C34.2307 8.6855 34.2679 9.45022 34.2679 10.2229ZM6.45388 32.0904L3.03653 29.9065V35.1175C2.52539 35.0219 2.01823 34.9143 1.51904 34.7909V1.51758H1.65181L6.4552 8.30845C6.45387 8.30845 6.45388 32.0904 6.45388 32.0904ZM32.4411 6.52012L33.8205 5.54431C33.8683 5.78726 33.9108 6.03155 33.9506 6.27716L33.9891 6.52012H32.4411Z" fill="#66C0FF"/>
<path d="M49.6577 14.0223C49.6577 17.4489 52.4351 20.2277 55.8631 20.2277C59.2897 20.2277 62.0685 17.4502 62.0685 14.0223C62.0685 10.5956 59.2911 7.81689 55.8631 7.81689C52.4351 7.81689 49.6577 10.5943 49.6577 14.0223Z" fill="#CB6362"/>
<path d="M35.5093 2.62891L35.2212 2.22266H3.86768L14.6109 17.4122L30.8373 5.93473V5.93208L33.5444 4.0163L33.5457 4.01762L35.5093 2.62891Z" fill="#F2EFEA"/>
<path d="M20.4786 41.0572C21.238 37.5017 22.7064 34.2105 24.7337 31.3375C26.1635 29.3076 27.8735 27.486 29.8039 25.93C34.3604 22.2578 40.1542 20.0605 46.4618 20.0605C47.2398 20.0605 48.0085 20.0937 48.7679 20.1588C54.2723 20.6314 59.2974 22.7835 63.3281 26.1013C64.8536 27.3559 66.237 28.7765 67.4504 30.3378V64.1952H45.8152L49.3614 59.6215L47.8386 58.5461L35.53 50.6772L35.781 50.6626L36.1195 50.6414L36.4594 50.6161L36.7993 50.5883L37.1391 50.5564L37.479 50.5219L37.8189 50.4834L38.1588 50.4422L38.4986 50.3958L38.8372 50.3466L39.1744 50.2935L39.5103 50.2364L39.8449 50.1754L39.9962 50.1462L40.1489 50.1143L40.3029 50.0798L40.4569 50.0426L40.6122 50.0041L40.7676 49.9629L40.9242 49.9191L41.0809 49.874L41.2375 49.8262L41.3955 49.7771L41.5535 49.7253L41.7115 49.6722L41.8708 49.6178L42.0301 49.5607L42.1895 49.5023L42.3488 49.4425L42.5081 49.3814L42.6674 49.319L42.8267 49.2553L42.986 49.1889L43.144 49.1226L43.302 49.0535L43.46 48.9845L43.6167 48.9141L43.7733 48.8424L43.93 48.7694L44.0867 48.6951L44.2407 48.6207L44.3947 48.545L44.5487 48.468L44.7 48.391L44.8514 48.3127L45.0014 48.2344L45.1501 48.1547L45.2988 48.075L45.4448 47.9954L45.5909 47.9144L45.7343 47.8334L45.8763 47.7511L46.017 47.6688L46.1564 47.5865L46.2945 47.5042L46.4313 47.4219L46.5667 47.3395L46.6994 47.2559L46.8309 47.1736L46.9597 47.0913L47.0871 47.009L47.2119 46.9266L47.3354 46.8443L47.4562 46.762L47.5744 46.681L47.6912 46.6L47.8054 46.5191L47.9169 46.4394L48.0258 46.3597L48.132 46.2814L48.2355 46.2031L48.3364 46.1261L48.4347 46.0491L48.5303 45.9734L48.6232 45.899L48.7135 45.8247L48.7998 45.753C50.3876 44.4041 54.4064 39.4919 54.0971 39.3299L54.0798 39.3206L54.0559 39.3073L54.0267 39.2914L53.9908 39.2715L53.9497 39.2489L53.9032 39.2237L53.8514 39.1958L53.7943 39.1653L53.7319 39.1321L53.6642 39.0962L53.5912 39.0577L53.5142 39.0166L53.4319 38.9741L53.3456 38.9289L53.2553 38.8812L53.1597 38.832L53.0602 38.7803L52.9566 38.7271L52.8491 38.6727L52.7375 38.6156L52.6234 38.5572L52.5052 38.4975L52.3831 38.4364L52.2583 38.374L52.1295 38.3103L51.9981 38.2465L51.864 38.1815L51.7272 38.1151L51.5878 38.0487L51.4458 37.981L51.301 37.9133L51.1537 37.8443L51.005 37.7752L50.8576 37.7049L50.7049 37.6358L50.5496 37.5655L50.3929 37.4964L50.235 37.4261L50.0756 37.357L49.915 37.2867L49.753 37.2176L49.5897 37.1486L49.4251 37.0809L49.2605 37.0132L49.0945 36.9468L48.9272 36.8804L48.7599 36.8153L48.5927 36.7516L48.4254 36.6892L48.2581 36.6282L48.0908 36.5671L47.9235 36.5073L47.7563 36.4502L47.589 36.3945L47.423 36.3401L47.2584 36.2869L47.0938 36.2365L46.9291 36.1874L46.7658 36.1409L46.6039 36.0958L46.4432 36.0533L46.2839 36.0135L46.1272 35.9763L45.9706 35.9404C45.8245 35.9086 45.6798 35.878 45.5351 35.8502C45.3917 35.8223 45.2483 35.7944 45.1063 35.7692C44.9642 35.7439 44.8235 35.72 44.6841 35.6988C44.5434 35.6762 44.4053 35.6563 44.2659 35.6364C44.1278 35.6178 43.9911 35.6006 43.8543 35.5846C43.7176 35.5687 43.5822 35.5541 43.4481 35.5421C43.314 35.5289 43.1799 35.5182 43.0471 35.509C42.9144 35.4997 42.7829 35.4917 42.6515 35.4837C42.52 35.4771 42.3913 35.4718 42.2612 35.4678C42.1324 35.4638 42.0036 35.4612 41.8761 35.4612C41.7487 35.4598 41.6226 35.4598 41.4964 35.4625C41.3703 35.4638 41.2455 35.4678 41.122 35.4718C40.9986 35.4758 40.8751 35.4824 40.753 35.489C40.6308 35.497 40.51 35.505 40.3892 35.5143C40.2684 35.5236 40.1489 35.5355 40.0307 35.5475C39.9126 35.5594 39.7944 35.5727 39.6776 35.5886C39.5607 35.6045 39.4452 35.6205 39.3297 35.6377C39.2142 35.655 39.1 35.6736 38.9872 35.6948C38.7602 35.7346 38.5371 35.7798 38.3167 35.8289C38.2065 35.8528 38.0977 35.8794 37.9888 35.9059C37.8799 35.9325 37.7724 35.9603 37.6649 35.9896C37.5587 36.0188 37.4524 36.0493 37.3462 36.0798C37.2414 36.1104 37.1365 36.1436 37.0329 36.1768C36.9294 36.2099 36.8258 36.2445 36.7249 36.2803C36.6227 36.3162 36.5218 36.352 36.4209 36.3892C36.32 36.4263 36.2204 36.4649 36.1222 36.5047C36.0226 36.5445 35.9257 36.5843 35.8274 36.6255C35.7305 36.6667 35.6336 36.7091 35.5367 36.7529C35.3442 36.8406 35.157 36.9309 34.9698 37.0238C34.8768 37.0703 34.7852 37.1194 34.6936 37.1672C34.602 37.2163 34.5117 37.2654 34.4215 37.3159C34.3312 37.3663 34.2422 37.4168 34.1546 37.4685C34.067 37.5203 33.9793 37.5734 33.8917 37.6265C33.8041 37.6796 33.7191 37.7341 33.6328 37.7885C33.5479 37.8429 33.4629 37.8987 33.3779 37.9558L33.127 38.1271C33.0447 38.1855 32.9624 38.2439 32.8801 38.3023L32.6384 38.4815C32.5588 38.5413 32.4791 38.6023 32.4008 38.6647L32.1671 38.8519L31.9374 39.0431L31.7117 39.237L31.49 39.4334L31.271 39.6339L31.0559 39.8371L30.8448 40.0428L30.6284 40.2539L30.4253 40.465L30.2248 40.6788L30.0283 40.8939L29.8358 41.1116L29.6473 41.3306L29.4614 41.551L29.2795 41.7727L29.1003 41.9958L28.925 42.2202L28.7524 42.4459L28.5838 42.6729L28.4179 42.8999L28.2559 43.1283L28.0966 43.3566L27.9399 43.585C27.5921 44.0988 27.2535 44.6431 26.9336 45.1888L20.9499 41.3638L20.4746 41.0598L20.4786 41.0572Z" fill="#EB8E51"/>
<path d="M49.3614 59.6228L45.8153 64.1965H3.03613V29.9062L8.03204 33.0992L13.5298 36.6135L20.9539 41.3598L26.9376 45.1847C25.5184 47.601 24.4562 50.0372 24.4562 50.0372C24.4562 50.0372 29.7588 50.9918 35.5314 50.6785L47.8399 58.5474L49.3614 59.6228Z" fill="#D89795"/>
<path d="M48.8024 45.7515C46.9942 47.2863 43.071 49.5659 39.8488 50.1752C32.7234 51.5254 24.4575 50.0358 24.4575 50.0358C24.4575 50.0358 26.052 46.3782 27.9452 43.5809C31.2471 38.7018 36.6213 33.8944 45.9653 35.935C49.2817 36.6599 53.7917 39.1625 54.101 39.3258C54.4077 39.4904 50.3903 44.4027 48.8024 45.7515ZM32.118 44.3137C31.3958 40.5074 33.8771 36.8418 37.6596 36.1248C41.442 35.4079 45.0943 37.9118 45.8166 41.7182C46.5388 45.5232 44.0574 49.1901 40.275 49.9071C36.4926 50.624 32.8402 48.1201 32.118 44.3137Z" fill="#FFEEC0"/>
<path d="M32.1182 44.3139C31.3959 40.5089 33.8773 36.842 37.6597 36.1264C41.4422 35.4095 45.0945 37.9134 45.8167 41.7197C46.539 45.5247 44.0576 49.1917 40.2752 49.9073C36.4927 50.6242 32.8404 48.1203 32.1182 44.3139Z" fill="#66C0FF"/>
<path d="M34.9714 10.2228C34.9714 12.9644 34.532 15.609 33.7168 18.0944C32.8738 20.666 31.6271 23.0664 30.0512 25.2238C29.325 26.2169 28.5284 27.1608 27.6654 28.0477C26.7998 28.9372 25.8771 29.7643 24.9026 30.5224C23.1608 31.8779 21.237 33.029 19.1752 33.9371C17.1598 34.8239 15.0104 35.4785 12.7654 35.8661L12.4441 35.9206L10.596 34.739C11.2505 34.6752 11.8958 34.5889 12.529 34.4788C14.6586 34.1123 16.6965 33.4923 18.6083 32.6493C20.5626 31.789 22.3854 30.6976 24.0397 29.4098C24.9743 28.6836 25.8492 27.9016 26.6591 27.0679C27.4729 26.2301 28.2284 25.3353 28.9187 24.3927C30.4083 22.3548 31.5846 20.0885 32.3799 17.6602C33.1486 15.3169 33.5628 12.817 33.5628 10.2228C33.5628 9.5696 33.5376 8.92703 33.4858 8.2964C33.4327 7.63922 33.3557 7.00328 33.2575 6.38725C33.2083 6.0819 33.1539 5.78716 33.0968 5.50172L33.0411 5.23486L33.9492 4.59229L34.2824 4.35729C34.3501 4.64539 34.4152 4.93614 34.4736 5.2269C34.5373 5.54686 34.5957 5.86151 34.6448 6.16819C34.7537 6.84662 34.8374 7.51973 34.8905 8.18753C34.9436 8.8633 34.9714 9.54172 34.9714 10.2228ZM3.03643 35.8303C2.4682 35.7281 1.90794 35.6086 1.35299 35.4732L0.813965 35.3404V0.8125H33.1632L33.3358 1.27054L33.4287 1.5188H2.51069L3.00855 2.22378H2.22392V34.2345C2.49343 34.2942 2.76427 34.35 3.03776 34.4018L3.03643 35.8303Z" fill="black"/>
<path d="M50.3613 14.0227C50.3613 15.5415 50.9773 16.9169 51.973 17.9126C52.9674 18.9084 54.3428 19.5244 55.863 19.5244C57.3818 19.5244 58.7572 18.9084 59.7516 17.9126C60.7474 16.9182 61.3634 15.5428 61.3634 14.0227C61.3634 12.5038 60.7474 11.1284 59.7516 10.1327C58.7572 9.13828 57.3818 8.52226 55.863 8.52226C54.3442 8.52226 52.9687 9.13828 51.973 10.1327C50.9773 11.1284 50.3613 12.5038 50.3613 14.0227ZM50.976 18.9084C49.7253 17.6577 48.9526 15.9305 48.9526 14.0213C48.9526 12.1135 49.7266 10.3863 50.976 9.13563C52.2266 7.88499 53.9538 7.1123 55.863 7.1123C57.7708 7.1123 59.4981 7.88632 60.7487 9.13563C61.9993 10.3863 62.772 12.1135 62.772 14.0213C62.772 15.9292 61.998 17.6577 60.7487 18.9084C59.4981 20.159 57.7708 20.9317 55.863 20.9317C53.9552 20.9317 52.2266 20.159 50.976 18.9084Z" fill="black"/>
<path d="M69.6732 32.5071V60.7526L69.6705 60.7911C69.6546 61.0606 69.6466 61.2212 69.6373 61.3765C69.3997 65.7126 69.3612 66.4202 64.9428 66.4202H27.6972L27.4888 66.2198C26.8289 65.5798 26.1983 64.9054 25.6022 64.1978H27.4768C27.7331 64.4739 27.9959 64.7448 28.2641 65.0116H64.9415C68.0295 65.0116 68.0574 64.4925 68.2327 61.3075L68.2632 60.7552H68.2619V32.7075C67.5516 31.5963 66.7524 30.5382 65.8774 29.5438C64.9521 28.4936 63.9497 27.5231 62.881 26.6442C60.8935 25.0086 58.6524 23.6623 56.2268 22.6719C53.8743 21.712 51.3478 21.088 48.7084 20.861C48.3101 20.8265 47.9371 20.8026 47.5892 20.7867C47.248 20.7721 46.871 20.7641 46.4594 20.7641C43.4417 20.7641 40.5488 21.2792 37.8616 22.2258C35.0709 23.2083 32.4993 24.6567 30.2423 26.4769C29.3023 27.235 28.4155 28.0568 27.5884 28.9384C26.7665 29.8159 26.0032 30.7519 25.3061 31.7397C24.2507 33.2359 23.3532 34.8437 22.6336 36.5391C21.9698 38.1044 21.456 39.7507 21.1095 41.4593L20.9515 41.3584L19.8442 40.6508C20.204 39.0417 20.7072 37.4857 21.3392 35.9948C22.1012 34.1958 23.0478 32.5004 24.1551 30.9311C24.8879 29.8916 25.6938 28.9038 26.5634 27.9758C27.433 27.0478 28.3677 26.1809 29.3607 25.3816C31.7425 23.4632 34.4522 21.9351 37.393 20.8995C40.2315 19.8998 43.2837 19.3555 46.4581 19.3555C46.8245 19.3555 47.2215 19.3648 47.6476 19.3833C48.0685 19.4019 48.4602 19.4258 48.8226 19.4577C51.6067 19.6967 54.2726 20.3552 56.7539 21.3682C59.307 22.4104 61.6702 23.8309 63.7718 25.5609C64.9109 26.4982 65.9691 27.5191 66.9329 28.6144C67.8955 29.7084 68.7757 30.8847 69.5603 32.134L69.6705 32.3092L69.6732 32.5071Z" fill="black"/>
<path d="M68.9682 67.2329H0V0H70.4856V67.2329H68.9682ZM3.03631 64.1966H67.4493V3.03631H3.03631V64.1966Z" fill="black"/>
<path d="M32.3811 8.1369C32.3227 7.36422 32.2603 6.59153 32.2125 5.81885L31.2407 6.50524L29.6448 7.63506C29.6077 8.03202 29.5851 8.425 29.5599 8.80471C29.4337 10.7019 29.2067 12.5898 29.1018 14.4897C28.9837 16.6006 28.9239 18.7142 28.8429 20.8265C28.8137 21.5832 28.7739 22.3387 28.7288 23.0954C28.6464 21.6231 28.5562 20.152 28.4473 18.681C28.2946 16.6125 28.1141 14.5467 27.9069 12.4836C27.8074 11.4879 27.6905 10.4948 27.5883 9.49906C27.575 9.37161 27.5644 9.24283 27.5551 9.11405L24.9782 10.9369C24.3701 13.7966 24.4498 16.8104 24.2958 19.7099C24.2002 21.4996 24.1179 23.2906 24.0395 25.0816C23.9068 23.6955 23.782 22.3094 23.6705 20.9221C23.5271 19.1297 23.3359 17.3175 23.3279 15.5199C23.3226 14.3635 23.4302 13.1965 23.4209 12.0375L21.2396 13.5802C21.2249 13.6904 21.2117 13.8006 21.1957 13.9108C21.047 14.9742 20.8891 16.035 20.7497 17.0998C20.4748 19.1935 20.2332 21.2925 20.0048 23.3915C19.7141 26.0653 19.4486 28.7419 19.1884 31.4197C19.203 30.9165 19.2149 30.412 19.2242 29.9102C19.2654 27.7607 19.276 25.6139 19.3809 23.4645C19.4857 21.3323 19.6291 19.2041 19.742 17.0732C19.7858 16.2355 19.8256 15.3978 19.8548 14.56L16.8822 16.663C16.2357 19.8573 15.8268 23.1047 15.309 26.3229C15.3249 26.1437 15.3409 25.9658 15.3608 25.7865C15.5798 23.6928 15.9091 21.6138 16.1746 19.5267C16.2822 18.6757 16.3777 17.822 16.4521 16.967L14.442 18.3889L13.8579 17.5631C13.6959 18.4341 13.5552 19.309 13.368 20.16C12.7334 23.0396 12.1147 25.9219 11.508 28.8082C11.1057 30.7174 10.6848 32.6265 10.2865 34.541L11.4018 35.2539C12.3723 30.2434 13.4782 25.2541 14.5682 20.2702C14.6784 19.7683 14.7832 19.2665 14.8868 18.7646C14.6465 21.2951 14.223 23.8137 13.9269 26.3362C13.5884 29.2171 13.5472 32.1048 13.5764 34.995C14.0929 34.8875 14.604 34.7653 15.1085 34.6286C15.1085 34.6047 15.1072 34.5808 15.1072 34.5569C15.4829 32.1897 15.9582 29.8385 16.4003 27.4833C16.9287 24.6607 17.2978 21.8129 17.7518 18.9784C17.9297 17.8672 18.1209 16.7573 18.3387 15.6513C18.2444 18.4288 18.0479 21.2048 17.9005 23.9809C17.7253 27.2522 17.6549 30.5381 17.6098 33.8174C18.5936 33.4443 19.5481 33.0155 20.4695 32.5349C20.9076 27.9891 21.3444 23.4419 21.8821 18.9067C21.9392 19.7856 22.0189 20.6645 22.0866 21.5381C22.3309 24.7231 22.6668 27.8988 22.9243 31.0825C23.4541 30.7293 23.9705 30.3563 24.4697 29.9673C24.7551 29.7455 25.0339 29.5185 25.3088 29.2862C25.3552 28.2081 25.4216 27.1288 25.4654 26.056C25.634 21.9271 25.7894 17.7915 26.0244 13.6665C26.0602 13.0492 26.1027 12.4265 26.1651 11.8038C26.2554 12.6283 26.3417 13.4528 26.4227 14.2772C26.6258 16.3404 26.8024 18.4075 26.951 20.476C27.0997 22.5458 27.2126 24.6169 27.3201 26.6893C27.3321 26.911 27.344 27.1328 27.356 27.3545C28.1194 26.5513 28.8297 25.7016 29.4829 24.8094C29.7046 24.5054 29.9197 24.1947 30.1281 23.8814C30.1892 22.9719 30.2529 22.0625 30.2954 21.1504C30.4719 17.356 30.5104 13.5497 30.8729 9.76592C30.8742 9.78583 30.8755 9.80442 30.8769 9.82301C31.0043 11.4852 31.1557 13.1448 31.392 14.795C31.6443 16.5621 31.9682 18.3225 32.1979 20.091C32.6878 18.9757 33.0967 17.8207 33.418 16.6298C33.2387 15.4947 33.0476 14.3609 32.8896 13.2231C32.6546 11.5357 32.5085 9.83761 32.3811 8.1369ZM10.1963 34.4826C10.4897 28.8189 10.9676 23.1565 11.3964 17.5047C11.4734 16.497 11.5743 15.5146 11.7111 14.5268L10.025 12.1424C8.8102 15.3088 8.38005 18.7434 7.93396 22.0851C7.48522 25.452 6.99001 28.8096 6.5957 32.1818L7.76004 32.9266C7.92998 31.3586 8.12116 29.7933 8.32694 28.2307C8.61239 26.0667 8.94297 23.9106 9.24434 21.7492C9.5112 19.8334 9.75548 17.9123 10.11 16.0111C10.2056 15.504 10.3078 14.9981 10.4206 14.495C10.2361 15.5942 10.0502 16.6736 9.96392 17.7902C9.71034 21.0734 9.47535 24.358 9.24301 27.6439C9.10361 29.6327 8.9589 31.6228 8.83145 33.613L10.1963 34.4826Z" fill="black"/>
<path d="M49.9178 60.053L45.6813 65.5176H1.8042V28.2866C8.31228 32.4474 14.8217 36.6083 21.3298 40.7691L27.2975 44.5847C27.0506 44.9857 26.8129 45.3932 26.5859 45.7955L20.5757 41.9533C14.7885 38.2532 9.00133 34.5531 3.21282 30.8543V64.109H44.9949L48.3552 59.7755L47.4338 59.125L47.4351 59.1237L34.3035 50.729C35.0934 50.7091 35.898 50.6679 36.7065 50.5989L48.2171 57.9567L48.245 57.9739L50.3679 59.4742L49.9178 60.053Z" fill="black"/>
<path d="M7.15859 6.52002H64.032V60.7129H6.45361V6.52002H7.15859ZM62.622 7.92997H7.86356V59.3043H62.6233C62.622 59.3043 62.622 7.92997 62.622 7.92997Z" fill="black"/>
<path d="M69.6734 1.51748V50.9255L48.1949 20.5651H48.1922L38.535 6.91167L38.5363 6.91034L36.3178 3.77446L34.3543 5.1645V5.16715L31.6472 7.08161L31.6459 7.08028L14.2764 19.3676L1.15137 0.8125H34.2228H40.5079H69.6721C69.6734 0.8125 69.6734 1.51748 69.6734 1.51748ZM35.5093 2.62871L35.2212 2.22245H3.86772L14.611 17.4106L30.8374 5.9332V5.93055L33.5444 4.01476L33.5457 4.01609L35.5093 2.62871ZM38.5151 2.22245L37.4649 2.9646L39.6834 6.10048H39.6861L49.3433 19.7539L49.342 19.7552L68.2635 46.5032V2.22245H38.5151Z" fill="black"/>
<path d="M36.1439 43.5454L36.1452 43.544C36.0045 42.7952 36.1784 42.0597 36.5727 41.4769C36.9697 40.8901 37.5897 40.4573 38.3411 40.3139L38.3464 40.3112V40.3126C39.0926 40.1718 39.8267 40.3484 40.4083 40.748C40.9924 41.1476 41.4239 41.7716 41.5673 42.5244L41.5699 42.535C41.708 43.2825 41.5354 44.0153 41.1411 44.5969C40.7441 45.1837 40.1228 45.6178 39.3727 45.7599L39.3621 45.7625V45.7638C38.6173 45.9019 37.8857 45.7253 37.3042 45.3271C36.7214 44.9261 36.2886 44.3021 36.1452 43.5507L36.1439 43.5454ZM49.257 46.2896C48.2254 47.1658 46.5326 48.2731 44.6713 49.1931C43.1458 49.9472 41.4943 50.5805 39.9768 50.8673C32.7226 52.2414 24.3584 50.7345 24.3345 50.7305L23.453 50.5739L23.8114 49.7561C23.8128 49.7521 23.9562 49.4255 24.2071 48.8904L22.1227 47.9146C22.0351 47.8735 21.9926 47.8549 21.9196 47.8018C21.8054 47.7181 21.7164 47.5933 21.6766 47.4433C21.5863 47.1034 21.7722 46.7582 22.0935 46.6719C22.2594 46.6281 22.428 46.6613 22.5648 46.7503L24.7461 47.7712C25.1072 47.045 25.5546 46.1834 26.0538 45.3032L23.2299 43.5772C23.1649 43.5374 23.1317 43.5148 23.0759 43.4604C22.979 43.3648 22.91 43.2374 22.8874 43.09C22.8343 42.7421 23.0573 42.4209 23.3866 42.3704C23.5552 42.3452 23.7198 42.3956 23.846 42.5005L26.6858 44.2371C26.9048 43.8799 27.1305 43.5281 27.3602 43.1882C27.647 42.7647 27.9484 42.3412 28.267 41.923L25.9835 39.7311C25.9343 39.6846 25.9078 39.6514 25.8693 39.593C25.7949 39.4801 25.7551 39.3407 25.7657 39.192C25.7883 38.8415 26.0751 38.576 26.407 38.5973C26.5782 38.6092 26.7269 38.6955 26.8278 38.823L29.0437 40.9512C29.8628 39.9793 30.7815 39.0526 31.8171 38.2229L29.9903 35.5994C29.9385 35.5238 29.9133 35.4893 29.8787 35.4069C29.8256 35.2795 29.8137 35.1321 29.8522 34.9874C29.9438 34.6475 30.277 34.4444 30.597 34.532C30.7616 34.5772 30.8917 34.6913 30.9661 34.8374L32.8088 37.486C33.3001 37.1475 33.8152 36.8328 34.3555 36.5447C34.9264 36.2407 35.5252 35.9672 36.1532 35.7322L35.249 33.0769C35.2092 32.9601 35.1774 32.8844 35.1667 32.7663C35.1548 32.6335 35.184 32.4941 35.2597 32.3693C35.4402 32.0693 35.8173 31.967 36.1014 32.1409C36.2474 32.2312 36.3404 32.3759 36.3709 32.5366L37.3281 35.3459C38.377 35.0471 39.5015 34.8507 40.7056 34.7803L40.5954 31.963C40.5915 31.8688 40.5928 31.8104 40.6167 31.7148C40.6472 31.5953 40.711 31.4824 40.8105 31.3922C41.0694 31.1572 41.4597 31.1678 41.6828 31.4161C41.797 31.5435 41.8434 31.7081 41.8288 31.8701L41.9417 34.7524C42.9852 34.7644 44.0871 34.8692 45.2475 35.0764L45.8901 32.2326C45.91 32.1476 45.9233 32.0971 45.9657 32.0175C46.0255 31.906 46.1198 31.809 46.2432 31.7453C46.5539 31.586 46.9296 31.6988 47.081 31.9962C47.1593 32.1502 47.1619 32.3228 47.1049 32.4755L46.4596 35.3299C47.3213 35.5437 48.2426 35.857 49.1428 36.2102L50.1943 33.458C50.2235 33.3823 50.2354 33.3518 50.2739 33.288C50.3496 33.1619 50.4691 33.0597 50.6218 33.0066C50.9524 32.8937 51.3082 33.0583 51.4144 33.3757C51.4701 33.539 51.4489 33.7102 51.3706 33.8523L50.2899 36.6828C51.1714 37.0638 51.9946 37.4555 52.6716 37.7927L53.8864 35.6008C53.9621 35.4627 54.0099 35.3525 54.1267 35.2476C54.2117 35.1719 54.3179 35.1162 54.4401 35.0936C54.7826 35.0286 55.1118 35.2423 55.1742 35.5702C55.2061 35.7388 55.161 35.9061 55.064 36.0362L53.7776 38.3583C54.0338 38.4937 54.2263 38.5973 54.3392 38.6583L54.4281 38.7061C54.4879 38.7367 54.5423 38.7778 54.5914 38.823C54.9286 39.1429 54.8476 39.6394 54.4573 40.2409C54.2555 40.5515 53.9568 40.9631 53.5983 41.4264C52.3371 43.0581 50.3005 45.4041 49.257 46.2896ZM45.4294 47.1977C46.6176 46.5193 47.6492 45.809 48.3489 45.2155C49.3247 44.3871 51.2697 42.1407 52.4844 40.5675C52.7619 40.2077 52.9996 39.8864 53.1748 39.6302C51.81 38.9092 48.4152 37.1926 45.8157 36.6244C44.6487 36.3695 43.5468 36.2261 42.5072 36.177C42.7754 36.3177 43.0343 36.473 43.2826 36.6443C44.9076 37.7582 46.1105 39.4947 46.5074 41.5884V41.5911C46.8911 43.6117 46.453 45.5966 45.4294 47.1977ZM31.8888 40.0152C30.5704 41.218 29.4645 42.5934 28.5285 43.9768C27.2182 45.9139 26.0565 48.2625 25.4816 49.4865C27.2381 49.7401 31.3285 50.2234 35.654 49.9698C35.3061 49.8012 34.9716 49.6074 34.6529 49.3883C33.0279 48.2744 31.8251 46.5379 31.4268 44.4442V44.4428C31.1334 42.8935 31.3232 41.3654 31.8888 40.0152ZM32.8088 44.1826V44.1853C33.1341 45.8966 34.1179 47.3159 35.4455 48.2266C36.7732 49.136 38.4433 49.5383 40.1427 49.2184V49.217L40.148 49.2157C41.8448 48.8944 43.2507 47.9093 44.1522 46.5777C45.055 45.2434 45.4506 43.5626 45.1267 41.85V41.8473C44.8014 40.136 43.8176 38.7167 42.49 37.806C41.1623 36.8965 39.4922 36.4943 37.7928 36.8156H37.7875C36.0908 37.1382 34.6848 38.122 33.7833 39.4536C32.8819 40.7892 32.4849 42.4713 32.8088 44.1826Z" fill="black"/>
<path d="M94.7889 30.8087L79.397 33.2524L81.8407 48.6443L97.2326 46.2006L94.7889 30.8087Z" fill="#EDE4E6"/>
<path d="M88.3305 34.7164C88.5841 33.9185 88.9638 33.3423 89.7432 33.3423C90.4866 33.3423 90.9022 33.9371 91.1558 34.7164L94.9249 46.4899H93.8734L92.66 42.7021H86.825L85.6115 46.4899H84.5601L88.3305 34.7164ZM87.0985 41.81H92.3878L90.2689 35.0138C90.16 34.6434 90.0153 34.2716 89.7432 34.2716C89.4723 34.2716 89.3263 34.6434 89.2174 35.0138L87.0985 41.81Z" fill="#363634" stroke="#363634" stroke-width="1.1999" stroke-miterlimit="10"/>
<path d="M99.8198 35.1241C99.8198 33.9358 100.363 33.4897 101.523 33.4897H104.894C107.213 33.4897 107.865 35.0683 107.865 37.2974C107.865 39.6009 107.304 41.1967 105.04 41.1967H104.259V41.2896L107.956 46.49H106.741L103.317 41.6242C103.172 41.4197 102.972 41.2339 102.972 40.9551V40.732C102.972 40.4532 103.135 40.3045 103.407 40.3045H104.983C106.722 40.3045 106.814 38.949 106.814 37.2961C106.814 35.5502 106.596 34.3806 104.712 34.3806H101.523C100.98 34.3806 100.798 34.5665 100.798 35.1227V46.4873H99.8198V35.1241Z" fill="#363634" stroke="#363634" stroke-width="1.1999" stroke-miterlimit="10"/>
<path d="M116.164 46.49V34.3819H111.942V33.4897H121.363V34.3819H117.141V46.49H116.164Z" fill="#363634" stroke="#363634" stroke-width="1.1999" stroke-miterlimit="10"/>
<path d="M90.3048 66.2704C86.1918 66.2704 85.4683 63.2991 85.4683 59.7716C85.4683 56.2427 86.1374 53.2715 90.4867 53.2715H93.4022V54.1637H90.4867C87.2247 54.1637 86.5184 56.2427 86.5184 59.7716C86.5184 63.2991 87.153 65.3795 90.3234 65.3795H93.6027V66.2717H90.3048V66.2704Z" fill="#363634" stroke="#363634" stroke-width="1.1999" stroke-miterlimit="10"/>
<path d="M101.724 54.4967C101.977 53.6988 102.357 53.1226 103.136 53.1226C103.88 53.1226 104.295 53.7173 104.549 54.4967L108.318 66.2702H107.267L106.053 62.4824H100.218L99.0046 66.2702H97.9531L101.724 54.4967ZM100.492 61.5916H105.781L103.662 54.7954C103.553 54.425 103.408 54.0532 103.136 54.0532C102.865 54.0532 102.719 54.425 102.61 54.7954L100.492 61.5916Z" fill="#363634" stroke="#363634" stroke-width="1.1999" stroke-miterlimit="10"/>
<path d="M121.763 64.9704C121.763 65.844 121.382 66.4189 120.604 66.4189C120.025 66.4189 119.644 66.2144 119.336 65.4722L114.879 54.4967C114.825 54.348 114.699 54.1807 114.498 54.1807C114.371 54.1807 114.19 54.2364 114.19 54.5524V66.2702H113.212V54.4409C113.212 53.1597 114.19 53.1226 114.408 53.1226C115.114 53.1226 115.458 53.493 115.657 53.9948L120.15 65.0262C120.223 65.212 120.349 65.3607 120.548 65.3607C120.783 65.3607 120.783 65.1563 120.783 65.0262V53.2713H121.762V64.9704H121.763Z" fill="#363634" stroke="#363634" stroke-width="1.1999" stroke-miterlimit="10"/>
<path d="M131.134 65.0636C131.207 65.3238 131.314 65.4167 131.442 65.4167C131.569 65.4167 131.677 65.3238 131.75 65.0636L135.191 53.2715H136.224L132.545 65.5654C132.436 65.9372 132.164 66.4191 131.44 66.4191C130.715 66.4191 130.443 65.9358 130.336 65.5654L126.657 53.2715H127.69L131.134 65.0636Z" fill="#363634" stroke="#363634" stroke-width="1.1999" stroke-miterlimit="10"/>
<path d="M143.076 54.4967C143.329 53.6988 143.709 53.1226 144.488 53.1226C145.232 53.1226 145.647 53.7173 145.901 54.4967L149.67 66.2702H148.619L147.405 62.4824H141.57L140.357 66.2702H139.305L143.076 54.4967ZM141.844 61.5916H147.133L145.014 54.7954C144.905 54.425 144.76 54.0532 144.488 54.0532C144.217 54.0532 144.071 54.425 143.963 54.7954L141.844 61.5916Z" fill="#363634" stroke="#363634" stroke-width="1.1999" stroke-miterlimit="10"/>
<path d="M154.22 65.3795H159.201C159.962 65.3795 160.688 64.9706 160.688 63.1518C160.688 62.2981 160.362 61.852 159.058 61.0528L156.177 59.2698C154.928 58.5077 154.021 57.8399 154.021 56.2056C154.021 54.3482 154.892 53.2715 156.883 53.2715H161.141V54.1637H156.883C155.561 54.1637 155.072 54.7199 155.072 56.2069C155.072 57.042 155.29 57.5067 156.395 58.2302L159.15 60.0132C160.508 60.8855 161.74 61.4431 161.74 63.1518C161.74 64.7489 161.161 66.2717 159.203 66.2717H154.221V65.3795H154.22Z" fill="#363634" stroke="#363634" stroke-width="1.1999" stroke-miterlimit="10"/>
<path d="M92.4288 18.5552C92.5363 19.069 92.7872 19.1062 92.8948 19.1062C93.0023 19.1062 93.2532 19.069 93.3608 18.5552L96.7316 1.10742H105.049L99.205 22.9643C98.4881 25.6833 96.8378 27.1159 92.8948 27.1159C88.9504 27.1159 87.3014 25.6462 86.5845 22.9643L80.7402 1.10742H89.0592L92.4288 18.5552Z" fill="#EB8E51"/>
<path d="M109.927 26.8211V1.10742H118.031V26.8211H109.927Z" fill="#EB8E51"/>
<path d="M130.041 3.93511C130.937 1.10724 132.91 0.8125 135.778 0.8125C138.647 0.8125 140.618 1.10724 141.514 3.93511L148.649 26.8209H140.115L138.86 21.5316H132.693L131.439 26.8209H122.905L130.041 3.93511ZM133.698 15.8732H137.858L136.102 9.15007C136.066 8.92968 135.958 8.5991 135.779 8.5991C135.6 8.5991 135.492 8.92968 135.456 9.15007L133.698 15.8732Z" fill="#EB8E51"/>
<path d="M152.447 5.14743C152.447 2.57579 153.881 1.10742 156.392 1.10742H168.044C173.781 1.10742 174.498 4.34022 174.498 9.84992C174.498 13.8913 173.996 18.9973 169.693 18.9973H169.478V19.1447L175 26.8224H166.324L162.845 20.872C162.057 19.5496 161.553 18.4849 161.553 17.0152V16.0978C161.553 13.8939 161.948 13.1956 164.098 13.1956H164.242C166.393 13.1956 166.751 12.4972 166.751 10.2934C166.751 8.08947 166.393 7.50133 164.242 7.50133H161.768C160.692 7.50133 160.19 8.01512 160.19 9.11706V26.8224H152.446V5.14743H152.447Z" fill="#EB8E51"/>
</g>
<defs>
<clipPath id="clip0_0_14674">
<rect width="175" height="67.2329" fill="white"/>
</clipPath>
</defs>
</svg>
