<svg width="101" height="102" viewBox="0 0 101 102" fill="none" xmlns="http://www.w3.org/2000/svg">
<path opacity="0.2" d="M77.2825 50.0347C77.2825 65.9802 64.3082 78.9544 48.3627 78.9544C32.4367 78.9544 19.4777 65.9802 19.4777 50.0347C19.4777 34.0892 32.4367 21.115 48.3627 21.115C64.3082 21.115 77.2825 34.0892 77.2825 50.0347Z" fill="url(#paint0_linear_0_6135)"/>
<path d="M49.7979 26.3712C50.3287 26.5347 50.5545 26.6969 50.7389 26.8604C50.8788 27.0239 50.9925 27.1861 50.8151 27.3496C50.6349 27.5131 50.1901 27.6753 50.1069 27.8388C50.0085 28.0023 50.1582 28.1645 50.4187 28.328C50.6904 28.4915 50.8941 28.6537 50.9703 28.8172C51.0756 28.9808 51.1851 29.1429 51.1408 29.3064C51.0188 29.6321 50.6862 29.9578 49.7993 30.2848H49.5221C48.6352 29.9592 48.3026 29.6335 48.1806 29.3064C48.1349 29.1429 48.2444 28.9808 48.3511 28.8172C48.4259 28.6537 48.631 28.4915 48.9026 28.328C49.1632 28.1645 49.3128 28.0023 49.2144 27.8388C49.1313 27.6753 48.685 27.5131 48.5049 27.3496C48.3289 27.1861 48.4411 27.0239 48.5811 26.8604C48.7654 26.6969 48.9899 26.5347 49.5221 26.3712H49.7979Z" fill="white"/>
<path d="M36.7039 30.2269C37.2457 30.1022 37.5229 30.1299 37.7627 30.1798C37.9664 30.2505 38.1452 30.335 38.0731 30.5651C37.9983 30.7965 37.6948 31.1596 37.7045 31.3425C37.7003 31.5338 37.9123 31.5989 38.2186 31.61C38.536 31.6156 38.7937 31.6544 38.9406 31.7583C39.1139 31.847 39.2899 31.9329 39.3328 32.0964C39.3896 32.4401 39.2649 32.8878 38.6607 33.6139L38.4209 33.7525C37.4896 33.9133 37.0392 33.7983 36.7704 33.5765C36.6498 33.4573 36.6623 33.2619 36.6734 33.0679C36.6568 32.8891 36.7524 32.6452 36.9062 32.3695C37.0503 32.0978 37.0988 31.8816 36.9312 31.7902C36.7773 31.6904 36.3103 31.7722 36.0733 31.7209C35.8391 31.6682 35.8544 31.47 35.8945 31.2594C35.9722 31.0266 36.0858 30.773 36.4641 30.3655L36.7039 30.2269Z" fill="white"/>
<path d="M27.9478 39.7325C28.3552 39.3542 28.6088 39.2405 28.8417 39.1629C29.0537 39.1227 29.2505 39.1061 29.3032 39.3417C29.3544 39.5787 29.2727 40.0457 29.3724 40.1995C29.4639 40.3672 29.6801 40.3173 29.9517 40.1746C30.2289 40.0207 30.4714 39.9251 30.6502 39.9418C30.8442 39.9321 31.0396 39.9182 31.1588 40.0388C31.3791 40.3076 31.4955 40.758 31.3348 41.6893L31.1962 41.929C30.47 42.5347 30.0224 42.658 29.6787 42.6012C29.5152 42.5582 29.4279 42.3822 29.3406 42.209C29.2366 42.0621 29.1978 41.8043 29.1923 41.487C29.1812 41.1807 29.1161 40.9687 28.9248 40.9728C28.7419 40.9631 28.3774 41.268 28.1474 41.3415C27.9173 41.4135 27.8328 41.2334 27.7621 41.031C27.7122 40.7899 27.6845 40.5141 27.8092 39.9722L27.9478 39.7325Z" fill="white"/>
<path d="M25.1194 52.342C25.2829 51.8112 25.4451 51.5853 25.6086 51.401C25.7721 51.2611 25.9343 51.1474 26.0978 51.3248C26.2613 51.505 26.4235 51.9498 26.587 52.033C26.7505 52.1314 26.9127 51.9817 27.0762 51.7212C27.2397 51.4495 27.4019 51.2458 27.5654 51.1696C27.7289 51.0643 27.8911 50.9548 28.0546 50.9991C28.3803 51.1211 28.7073 51.4537 29.033 52.3406V52.6178C28.7073 53.5047 28.3803 53.8373 28.0546 53.9593C27.8911 54.005 27.7289 53.8955 27.5654 53.7888C27.4019 53.714 27.2397 53.5089 27.0762 53.2373C26.9127 52.9767 26.7505 52.8271 26.587 52.9255C26.4235 53.0086 26.2613 53.4548 26.0978 53.635C25.9343 53.811 25.7721 53.6987 25.6086 53.5588C25.4451 53.3745 25.2829 53.15 25.1194 52.6178V52.342Z" fill="white"/>
<path d="M28.9749 64.6775C28.8502 64.1357 28.8793 63.8585 28.9278 63.6187C28.9985 63.415 29.083 63.2362 29.3131 63.3083C29.5445 63.3831 29.9076 63.6866 30.0905 63.6783C30.2818 63.6825 30.3469 63.4705 30.358 63.1642C30.3635 62.8468 30.4023 62.5891 30.5063 62.4422C30.595 62.2689 30.6809 62.0929 30.8444 62.05C31.1881 61.9931 31.6357 62.1179 32.3619 62.7235L32.5005 62.9632C32.6613 63.8945 32.5449 64.3449 32.3245 64.6138C32.2053 64.7343 32.0099 64.7205 31.8159 64.7108C31.6371 64.7274 31.3946 64.6318 31.1174 64.478C30.8458 64.3338 30.6296 64.2853 30.5382 64.453C30.4384 64.6068 30.5201 65.0739 30.4689 65.3109C30.4162 65.5451 30.218 65.5298 30.0074 65.4882C29.7746 65.4106 29.5209 65.297 29.1135 64.9187L28.9749 64.6775Z" fill="white"/>
<path d="M38.4792 73.4317C38.1009 73.0242 37.9872 72.7706 37.9096 72.5378C37.8694 72.3258 37.8528 72.129 38.0884 72.0763C38.3254 72.025 38.7924 72.1068 38.9462 72.007C39.1139 71.9156 39.064 71.6994 38.9213 71.4278C38.7675 71.1506 38.6718 70.9081 38.6885 70.7279C38.6788 70.5339 38.6649 70.3385 38.7855 70.2193C39.0543 69.9976 39.5047 69.8812 40.436 70.0433L40.6758 70.1819C41.2814 70.9081 41.4047 71.3557 41.3479 71.6994C41.3049 71.8629 41.1289 71.9502 40.9557 72.0375C40.8088 72.1415 40.551 72.1803 40.2337 72.1858C39.9274 72.1969 39.7154 72.2634 39.7195 72.4533C39.7098 72.6362 40.0147 73.0007 40.0895 73.2307C40.1616 73.4608 39.9814 73.5453 39.7791 73.616C39.538 73.6659 39.2622 73.6936 38.7203 73.5689L38.4792 73.4317Z" fill="white"/>
<path d="M49.7979 72.348C50.3287 72.5116 50.5545 72.6737 50.7389 72.8372C50.8788 73.0008 50.9925 73.1629 50.8151 73.3264C50.6349 73.49 50.1901 73.6521 50.1069 73.8156C50.0085 73.9792 50.1582 74.1413 50.4187 74.3048C50.6904 74.4684 50.8941 74.6305 50.9703 74.794C51.0756 74.9576 51.1851 75.1197 51.1408 75.2832C51.0188 75.6089 50.6862 75.9346 49.7993 76.2616H49.5221C48.6352 75.936 48.3026 75.6103 48.1806 75.2832C48.1349 75.1197 48.2444 74.9576 48.3511 74.794C48.4259 74.6305 48.631 74.4684 48.9026 74.3048C49.1632 74.1413 49.3128 73.9792 49.2144 73.8156C49.1313 73.6521 48.685 73.49 48.5049 73.3264C48.3289 73.1629 48.4411 73.0008 48.5811 72.8372C48.7654 72.6737 48.9899 72.5116 49.5221 72.348H49.7979Z" fill="white"/>
<path d="M59.6927 70.0435C60.2346 69.9188 60.5117 69.9479 60.7515 69.9964C60.9552 70.0671 61.134 70.1516 61.0619 70.3817C60.9871 70.6131 60.6836 70.9762 60.6919 71.1591C60.6877 71.3504 60.8998 71.4155 61.206 71.4266C61.5234 71.4321 61.7812 71.4709 61.9281 71.5749C62.1013 71.6636 62.2773 71.7495 62.3202 71.913C62.3771 72.2567 62.2523 72.7043 61.6481 73.4305L61.4084 73.5691C60.4771 73.7299 60.0267 73.6135 59.7578 73.3931C59.6373 73.2739 59.6497 73.0785 59.6608 72.8845C59.6442 72.7057 59.7398 72.4618 59.8936 72.1847C60.0378 71.913 60.0863 71.6968 59.9186 71.6054C59.7648 71.5056 59.2977 71.5874 59.0607 71.5361C58.8265 71.4834 58.8418 71.2852 58.882 71.0746C58.9596 70.8418 59.0732 70.5882 59.4516 70.1807L59.6927 70.0435Z" fill="white"/>
<path d="M67.7659 62.7219C68.1734 62.3436 68.427 62.2286 68.6598 62.1523C68.8718 62.1122 69.0686 62.0955 69.1213 62.3297C69.1725 62.5667 69.0908 63.0337 69.1906 63.1876C69.282 63.3552 69.4982 63.3054 69.7698 63.1626C70.047 63.0088 70.2895 62.9132 70.4683 62.9298C70.6623 62.9201 70.8577 62.9062 70.9769 63.0268C71.1973 63.2957 71.3137 63.7461 71.1529 64.6773L71.0143 64.9171C70.2881 65.5227 69.8405 65.6474 69.4968 65.5906C69.3333 65.5476 69.246 65.3716 69.1587 65.1984C69.0547 65.0515 69.0159 64.7937 69.0104 64.4764C68.9993 64.1701 68.9328 63.9581 68.7429 63.9622C68.56 63.9525 68.1955 64.2574 67.9655 64.3323C67.7354 64.4043 67.6509 64.2242 67.5802 64.0218C67.5303 63.7807 67.5026 63.5049 67.6273 62.9631L67.7659 62.7219Z" fill="white"/>
<path d="M71.0961 52.342C71.2596 51.8112 71.4217 51.5853 71.5853 51.401C71.7488 51.2611 71.9109 51.1474 72.0745 51.3248C72.238 51.505 72.4001 51.9498 72.5637 52.033C72.7272 52.1314 72.8894 51.9817 73.0529 51.7212C73.2164 51.4495 73.3785 51.2458 73.5421 51.1696C73.7056 51.0643 73.8677 50.9548 74.0313 50.9991C74.357 51.1211 74.684 51.4537 75.0097 52.3406V52.6178C74.684 53.5047 74.357 53.8373 74.0313 53.9593C73.8677 54.005 73.7056 53.8955 73.5421 53.7888C73.3785 53.714 73.2164 53.5089 73.0529 53.2373C72.8894 52.9767 72.7272 52.8271 72.5637 52.9255C72.4001 53.0086 72.238 53.4548 72.0745 53.635C71.9109 53.811 71.7488 53.6987 71.5853 53.5588C71.4217 53.3745 71.2596 53.15 71.0961 52.6178V52.342Z" fill="white"/>
<path d="M68.793 41.689C68.6683 41.1472 68.6974 40.87 68.7459 40.6303C68.8166 40.4265 68.9011 40.2478 69.1312 40.3198C69.3626 40.3947 69.7257 40.6982 69.9086 40.6885C70.0999 40.6926 70.165 40.4806 70.1761 40.1743C70.1817 39.857 70.2205 39.5992 70.3244 39.4523C70.4131 39.2791 70.499 39.1031 70.6625 39.0601C71.0062 39.0033 71.4539 39.128 72.18 39.7322L72.3186 39.972C72.4794 40.9033 72.363 41.3537 72.1426 41.6225C72.0234 41.7431 71.828 41.7306 71.634 41.7195C71.4552 41.7362 71.2113 41.6405 70.9356 41.4867C70.6639 41.3426 70.4477 41.2941 70.3563 41.4618C70.2565 41.6156 70.3383 42.0826 70.287 42.3196C70.2343 42.5538 70.0361 42.5386 69.8255 42.4984C69.5927 42.4208 69.3391 42.3071 68.9316 41.9288L68.793 41.689Z" fill="white"/>
<path d="M61.4685 33.6137C61.0901 33.2063 60.9765 32.9527 60.8989 32.7198C60.8587 32.5078 60.8421 32.311 61.0776 32.2584C61.3146 32.2071 61.7817 32.2888 61.9355 32.1891C62.1032 32.0976 62.0533 31.8814 61.9105 31.6098C61.7567 31.3326 61.6611 31.0901 61.6777 30.9113C61.668 30.7173 61.6542 30.5219 61.7747 30.4027C62.0436 30.1824 62.494 30.066 63.4253 30.2267L63.665 30.3653C64.2706 31.0915 64.394 31.5391 64.3371 31.8828C64.2942 32.0463 64.1182 32.1336 63.945 32.2209C63.7981 32.3249 63.5403 32.3637 63.2229 32.3692C62.9167 32.3803 62.7046 32.4454 62.7088 32.6367C62.6991 32.8196 63.004 33.1841 63.0774 33.4141C63.1495 33.6442 62.9693 33.7287 62.767 33.7994C62.5259 33.8493 62.2501 33.877 61.7082 33.7523L61.4685 33.6137Z" fill="white"/>
<path d="M49.7985 33.6831C50.411 35.1507 50.6716 36.6197 50.8268 38.0887C50.9848 39.5577 50.9779 41.0267 50.5774 42.4971C50.1921 43.9674 49.9981 45.4378 50.1838 46.9068C50.321 48.3758 50.7977 49.8434 50.9266 51.3124L50.9792 51.9138L50.4637 52.2686C50.3681 52.3351 50.4693 52.4987 50.5801 51.9887C50.6162 51.724 50.4512 51.4025 50.3321 51.3027C50.2129 51.1849 50.1533 51.1627 50.1173 51.1392C49.926 51.1017 50.3113 51.0934 50.5524 51.0754L51.3215 51.0255C52.3471 50.9632 53.3726 50.9909 54.3981 51.0837C56.4492 51.2777 58.4988 51.5951 60.5499 52.3435V52.6206C58.4988 53.3704 56.4492 53.6863 54.3981 53.8804C53.3726 53.9732 52.3471 54.0009 51.3215 53.9386L50.5524 53.8887C50.2822 53.8499 50.1477 53.9122 49.4548 53.7556C49.1721 53.6697 48.87 53.5408 48.5596 53.2512C48.2491 52.9823 47.9623 52.4072 48.0135 51.8861C48.1632 50.8523 48.6746 50.6167 48.9628 50.3672L48.5014 51.3235C48.6205 49.8531 49.089 48.3827 49.2165 46.9123C49.3938 45.442 49.1887 43.973 48.7952 42.5054C48.385 41.0378 48.3697 39.5674 48.518 38.0984C48.6649 36.628 48.9157 35.1576 49.5186 33.6873L49.7985 33.6831Z" fill="url(#paint1_linear_0_6135)"/>
<path d="M81.286 51.3165C81.268 59.4639 78.366 67.7346 72.6466 73.9085C67.0285 80.1434 58.5152 83.7854 50.0588 83.572C45.839 83.4583 41.6662 82.4827 37.869 80.7573C34.0704 79.025 30.6529 76.5638 27.769 73.6147C21.9983 67.7207 18.4478 59.6759 18.2205 51.3165C17.917 42.971 21.1945 34.4564 27.1647 28.4141C30.1277 25.3833 33.6948 22.9304 37.6112 21.2549C41.5248 19.5683 45.8029 18.741 50.0602 18.7368C54.3161 18.7923 58.5804 19.6404 62.4649 21.3616C66.3632 23.0482 69.8528 25.6009 72.6771 28.6955C78.3785 34.8929 81.2985 43.1636 81.286 51.3165ZM81.0088 51.3165C80.9742 47.2657 80.1219 43.2177 78.4173 39.5702C76.7238 35.9226 74.3152 32.6451 71.3869 29.9843C65.5193 24.6835 57.8348 21.6221 50.0588 21.6928C42.3051 21.7025 34.5901 24.7749 29.0093 30.2573C23.4188 35.7092 19.9875 43.3563 19.738 51.3165C19.6507 55.2828 20.2813 59.3115 21.7863 63.031C23.2636 66.7576 25.5447 70.1681 28.4065 72.98C34.1605 78.6328 42.2427 81.5057 50.0602 81.2646C57.911 81.1024 65.5553 78.0148 71.4188 72.6779C74.3388 70.0018 76.7474 66.7215 78.4408 63.0712C80.1413 59.4195 80.9866 55.366 81.0088 51.3165Z" fill="white"/>
<path d="M77.6734 20.2677C78.4287 20.2053 78.9775 20.3494 79.4806 20.5393C79.9712 20.7416 80.3841 21.0216 80.732 21.3666C81.0798 21.7117 81.3598 22.1247 81.5621 22.6153C81.7534 23.1169 81.8947 23.6685 81.831 24.4252C81.0743 24.4889 80.5227 24.3476 80.0211 24.1563C79.5305 23.954 79.1175 23.6741 78.7724 23.3262C78.4273 22.9784 78.1474 22.5654 77.9451 22.0748C77.7552 21.5717 77.6125 21.0229 77.6734 20.2677Z" fill="url(#paint2_linear_0_6135)"/>
<path d="M84.7403 24.4255C84.678 23.6702 84.8221 23.1214 85.0119 22.6183C85.2143 22.1277 85.4942 21.7148 85.8393 21.3669C86.1844 21.0191 86.5974 20.7391 87.0879 20.5368C87.5896 20.3456 88.1412 20.2042 88.8979 20.2679C88.9616 21.0246 88.8202 21.5762 88.629 22.0778C88.4267 22.5684 88.1467 22.9814 87.7989 23.3265C87.451 23.6716 87.038 23.9515 86.5475 24.1538C86.0458 24.3437 85.4956 24.4878 84.7403 24.4255Z" fill="url(#paint3_linear_0_6135)"/>
<path d="M81.8293 27.3355C81.8917 28.0908 81.7475 28.6396 81.5577 29.1427C81.3553 29.6333 81.0754 30.0462 80.7303 30.3941C80.3852 30.7419 79.9723 31.0219 79.4817 31.2242C78.98 31.4155 78.4284 31.5568 77.6718 31.4931C77.608 30.7364 77.7494 30.1848 77.9406 29.6832C78.1429 29.1926 78.4229 28.7796 78.7707 28.4345C79.1186 28.0894 79.5316 27.8095 80.0221 27.6072C80.5252 27.4173 81.0754 27.2732 81.8293 27.3355Z" fill="url(#paint4_linear_0_6135)"/>
<path d="M88.8986 31.4928C88.1433 31.5552 87.5945 31.4111 87.0915 31.2212C86.6009 31.0189 86.1879 30.7389 85.8401 30.3939C85.4922 30.0488 85.2123 29.6358 85.0099 29.1452C84.8187 28.6436 84.6773 28.092 84.7411 27.3353C85.4978 27.2716 86.0493 27.4129 86.551 27.6042C87.0416 27.8065 87.4546 28.0865 87.7996 28.4343C88.1447 28.7821 88.4246 29.1951 88.627 29.6857C88.8182 30.1888 88.961 30.7376 88.8986 31.4928Z" fill="url(#paint5_linear_0_6135)"/>
<path d="M17.6688 76.2629C18.1797 76.2207 18.5509 76.3182 18.8911 76.4466C19.2229 76.5835 19.5023 76.7728 19.7375 77.0062C19.9728 77.2396 20.1621 77.5189 20.299 77.8507C20.4283 78.1901 20.5239 78.5631 20.4808 79.0749C19.969 79.118 19.596 79.0224 19.2567 78.8931C18.9249 78.7562 18.6455 78.5669 18.4121 78.3316C18.1787 78.0963 17.9894 77.817 17.8525 77.4852C17.7241 77.1449 17.6276 76.7737 17.6688 76.2629Z" fill="url(#paint6_linear_0_6135)"/>
<path d="M22.4475 79.0749C22.4053 78.5641 22.5028 78.1929 22.6312 77.8526C22.768 77.5208 22.9574 77.2415 23.1908 77.0062C23.4242 76.771 23.7035 76.5816 24.0353 76.4448C24.3746 76.3154 24.7477 76.2198 25.2595 76.2629C25.3026 76.7747 25.207 77.1478 25.0776 77.4871C24.9408 77.8189 24.7514 78.0982 24.5162 78.3316C24.2809 78.565 24.0016 78.7544 23.6698 78.8912C23.3304 79.0196 22.9583 79.1171 22.4475 79.0749Z" fill="url(#paint7_linear_0_6135)"/>
<path d="M20.4788 81.0432C20.5209 81.554 20.4234 81.9252 20.295 82.2655C20.1582 82.5973 19.9688 82.8766 19.7354 83.1119C19.502 83.3471 19.2227 83.5365 18.8909 83.6733C18.5516 83.8027 18.1785 83.8983 17.6667 83.8552C17.6236 83.3434 17.7192 82.9703 17.8486 82.631C17.9854 82.2992 18.1748 82.0199 18.41 81.7865C18.6453 81.5531 18.9246 81.3637 19.2565 81.2269C19.5967 81.0985 19.9688 81.001 20.4788 81.0432Z" fill="url(#paint8_linear_0_6135)"/>
<path d="M25.26 83.8552C24.7491 83.8974 24.378 83.7999 24.0377 83.6715C23.7059 83.5346 23.4266 83.3453 23.1913 83.1119C22.956 82.8785 22.7667 82.5992 22.6298 82.2674C22.5005 81.928 22.4049 81.555 22.448 81.0432C22.9598 81.0001 23.3328 81.0957 23.6721 81.225C24.004 81.3619 24.2833 81.5512 24.5167 81.7865C24.7501 82.0218 24.9394 82.3011 25.0763 82.6329C25.2056 82.9732 25.3022 83.3444 25.26 83.8552Z" fill="url(#paint9_linear_0_6135)"/>
<defs>
<linearGradient id="paint0_linear_0_6135" x1="19.4768" y1="50.0346" x2="77.2819" y2="50.0346" gradientUnits="userSpaceOnUse">
<stop offset="1.58946e-07" stop-color="#FC8C5F"/>
<stop offset="1" stop-color="#FA7846"/>
</linearGradient>
<linearGradient id="paint1_linear_0_6135" x1="47.9106" y1="43.8268" x2="60.551" y2="43.8268" gradientUnits="userSpaceOnUse">
<stop offset="1.58946e-07" stop-color="#FC8C5F"/>
<stop offset="1" stop-color="#FA7846"/>
</linearGradient>
<linearGradient id="paint2_linear_0_6135" x1="76.288" y1="22.347" x2="83.2172" y2="22.347" gradientUnits="userSpaceOnUse">
<stop offset="1.58946e-07" stop-color="#FC8C5F"/>
<stop offset="1" stop-color="#FA7846"/>
</linearGradient>
<linearGradient id="paint3_linear_0_6135" x1="83.3549" y1="22.3461" x2="90.2841" y2="22.3461" gradientUnits="userSpaceOnUse">
<stop offset="1.58946e-07" stop-color="#FC8C5F"/>
<stop offset="1" stop-color="#FA7846"/>
</linearGradient>
<linearGradient id="paint4_linear_0_6135" x1="76.2863" y1="29.4149" x2="83.2156" y2="29.4149" gradientUnits="userSpaceOnUse">
<stop offset="1.58946e-07" stop-color="#FC8C5F"/>
<stop offset="1" stop-color="#FA7846"/>
</linearGradient>
<linearGradient id="paint5_linear_0_6135" x1="83.3557" y1="29.4135" x2="90.2849" y2="29.4135" gradientUnits="userSpaceOnUse">
<stop offset="1.58946e-07" stop-color="#FC8C5F"/>
<stop offset="1" stop-color="#FA7846"/>
</linearGradient>
<linearGradient id="paint6_linear_0_6135" x1="16.7318" y1="77.6693" x2="21.4184" y2="77.6693" gradientUnits="userSpaceOnUse">
<stop offset="1.58946e-07" stop-color="#FC8C5F"/>
<stop offset="1" stop-color="#FA7846"/>
</linearGradient>
<linearGradient id="paint7_linear_0_6135" x1="21.5104" y1="77.6686" x2="26.1971" y2="77.6686" gradientUnits="userSpaceOnUse">
<stop offset="1.58946e-07" stop-color="#FC8C5F"/>
<stop offset="1" stop-color="#FA7846"/>
</linearGradient>
<linearGradient id="paint8_linear_0_6135" x1="16.7297" y1="82.4495" x2="21.4164" y2="82.4495" gradientUnits="userSpaceOnUse">
<stop offset="1.58946e-07" stop-color="#FC8C5F"/>
<stop offset="1" stop-color="#FA7846"/>
</linearGradient>
<linearGradient id="paint9_linear_0_6135" x1="21.5109" y1="82.4488" x2="26.1976" y2="82.4488" gradientUnits="userSpaceOnUse">
<stop offset="1.58946e-07" stop-color="#FC8C5F"/>
<stop offset="1" stop-color="#FA7846"/>
</linearGradient>
</defs>
</svg>
